<svg width="139" height="138" viewBox="0 0 139 138" fill="none" xmlns="http://www.w3.org/2000/svg">
<path d="M34.1527 87.583V91.8515M34.1527 91.8515H25.6157M34.1527 91.8515H42.6896M29.8842 91.8515H38.4212V96.12H29.8842V91.8515Z" stroke="#E5E5E5" stroke-width="1.61719" stroke-miterlimit="10" stroke-linecap="round" stroke-linejoin="round"/>
<path d="M36.5782 100.389H34.1525M34.1525 100.389V96.12M34.1525 100.389H27.23M34.1525 96.12H42.6895M34.1525 96.12H25.6156H29.8841V91.8516H22.7056" stroke="#E5E5E5" stroke-width="1.61719" stroke-miterlimit="10" stroke-linecap="round" stroke-linejoin="round"/>
<path d="M44.5814 96.1199H38.4209V91.8514H41.38M113.334 60.9155V65.184M113.334 65.184H121.871M113.334 65.184H104.798" stroke="#E5E5E5" stroke-width="1.61719" stroke-miterlimit="10" stroke-linecap="round" stroke-linejoin="round"/>
<path d="M117.603 69.4526H109.066V65.1842H117.603V69.4526Z" stroke="#E5E5E5" stroke-width="1.61719" stroke-miterlimit="10" stroke-linecap="round" stroke-linejoin="round"/>
<path d="M110.909 73.721H113.335M113.335 73.721V69.4526M113.335 73.721H120.257M113.335 69.4526H104.798M113.335 69.4526H121.872H117.603V65.1841H124.782M102.906 69.4526H109.066V65.1841H106.107" stroke="#E5E5E5" stroke-width="1.61719" stroke-miterlimit="10" stroke-linecap="round" stroke-linejoin="round"/>
<path d="M81.5106 42.484C85.7791 42.484 89.2394 39.0237 89.2394 34.7552C89.2394 30.4867 85.7791 27.0264 81.5106 27.0264C77.242 27.0264 73.7817 30.4867 73.7817 34.7552C73.7817 39.0237 77.242 42.484 81.5106 42.484Z" stroke="#E5E5E5" stroke-width="1.61719" stroke-miterlimit="10" stroke-linecap="round" stroke-linejoin="round"/>
<path d="M81.5108 27.8154V28.5704M81.5108 40.9405V41.6953M88.4507 34.7554H87.6958M75.3258 34.7554H74.5708" stroke="#E5E5E5" stroke-width="1.61719" stroke-miterlimit="10" stroke-linecap="round" stroke-linejoin="round"/>
<path d="M81.5109 35.3797C81.8556 35.3797 82.1351 35.1002 82.1351 34.7555C82.1351 34.4108 81.8556 34.1313 81.5109 34.1313C81.1662 34.1313 80.8867 34.4108 80.8867 34.7555C80.8867 35.1002 81.1662 35.3797 81.5109 35.3797Z" fill="#E5E5E5"/>
<path d="M81.5107 34.7555L84.8436 30.6309" stroke="#E5E5E5" stroke-width="1.07812" stroke-miterlimit="10" stroke-linecap="round" stroke-linejoin="round"/>
<path d="M79.4077 32.6929L81.5107 34.7553" stroke="#E5E5E5" stroke-width="1.61719" stroke-miterlimit="10" stroke-linecap="round" stroke-linejoin="round"/>
<path d="M19.2456 34.9072H36.2613V52.2001H19.2456V34.9072Z" stroke="#E5E5E5" stroke-width="2.15625" stroke-miterlimit="10" stroke-linecap="round" stroke-linejoin="round"/>
<path d="M33.8853 37.5869V49.5196H21.6226V37.5869H33.8853Z" stroke="#E5E5E5" stroke-width="1.07812" stroke-miterlimit="10" stroke-linecap="round" stroke-linejoin="round"/>
<path d="M40.4131 29.3901H55.4035V40.1206H40.4131V29.3901Z" stroke="#E5E5E5" stroke-width="2.15625" stroke-miterlimit="10" stroke-linecap="round" stroke-linejoin="round"/>
<path d="M53.2026 31.5913V37.9194H42.6146V31.5913H53.2026Z" stroke="#E5E5E5" stroke-width="1.07812" stroke-miterlimit="10" stroke-linecap="round" stroke-linejoin="round"/>
<path d="M49.1934 46.936V56.9597H42.6145V46.936H49.1934Z" stroke="#E5E5E5" stroke-width="1.07812" stroke-miterlimit="10" stroke-linecap="round" stroke-linejoin="round"/>
<path d="M40.4131 44.7349H51.3944V59.1608H40.4131V44.7349Z" stroke="#E5E5E5" stroke-width="2.15625" stroke-miterlimit="10" stroke-linecap="round" stroke-linejoin="round"/>
<path d="M115.569 108.213L116.662 108.215M111.222 108.222H113.775M65.774 108.222H109.29M28.1 108.222H62.876M22.097 108.222H25.133M17.957 108.222H19.613" stroke="#C03000" stroke-width="1.61719" stroke-miterlimit="10" stroke-linecap="round" stroke-linejoin="round"/>
<path d="M46.1638 93.0687C43.6486 91.4683 39.2164 88.6483 37.3017 82.7967C35.9665 78.7164 35.9334 73.5728 37.3739 73.09C39.0384 72.5324 41.9488 78.4411 43.0203 77.9347C43.8608 77.5374 42.1085 73.8819 41.8703 67.6767C41.708 63.4489 42.3169 59.8199 44.2163 56.5907C45.0885 55.1079 45.7248 54.0263 46.4243 54.1067C49.3092 54.4384 48.4903 73.9794 51.5763 74.3468C53.0265 74.5194 54.1883 70.3204 55.8083 70.6668C57.1856 70.9614 58.1117 74.3712 58.3572 76.5743C58.3693 76.6831 58.3782 76.7699 58.3844 76.8307C59.1076 83.9924 54.9272 89.1546 53.5084 90.9067C51.4031 93.5064 49.9702 94.0191 48.878 94.0347C47.7262 94.0511 46.8463 93.5029 46.1638 93.0687Z" fill="#9AE45F"/>
<path d="M45.4189 65.8262C45.9039 70.9322 48.798 78.6951 49.2294 85.2842C49.473 89.0145 49.3343 92.76 48.8154 96.4622" stroke="#FF7849" stroke-width="1.61719" stroke-miterlimit="10" stroke-linecap="round" stroke-linejoin="round"/>
<path d="M58.7376 108.222H37.3465C36.2905 106.352 35.7535 104.233 35.7909 102.086C35.8283 99.9379 36.4389 97.8393 37.5594 96.0068L40.7057 90.8613H55.3787L58.4352 95.6249C59.5476 97.3586 60.1973 99.3483 60.3222 101.404C60.4471 103.46 60.0431 105.514 59.1487 107.37L58.7376 108.222Z" fill="#26D7FE"/>
<path d="M52.2533 77.5396C52.2533 77.5396 52.1975 79.8862 48.9712 82.9382M42.0537 82.9382C42.0537 82.9382 44.2191 87.3542 49.3465 87.3542" stroke="#FF7849" stroke-width="1.61719" stroke-miterlimit="10" stroke-linecap="round" stroke-linejoin="round"/>
<path opacity="0.67" d="M53.2607 94.5024C53.2607 94.5024 56.5144 96.622 56.5144 101.717" stroke="#FF7849" stroke-width="1.61719" stroke-miterlimit="10" stroke-linecap="round" stroke-linejoin="round"/>
<path d="M72.7559 109.578C72.7559 113.614 79.6365 116.886 88.1242 116.886C94.7695 116.886 100.43 114.88 102.574 112.072L86.5011 113.232L72.7559 109.578Z" fill="#D6D6D6"/>
<path d="M100.365 109.165C99.961 109.08 99.5424 109.119 99.1582 109.271C96.7308 110.229 92.4811 110.864 87.6435 110.864C80.0982 110.864 73.9815 109.319 73.9815 107.414C73.9815 105.728 78.7697 104.325 85.0986 104.024L85.5339 101.717C76.853 102.256 70.2554 104.941 70.2554 108.173C70.2554 111.793 78.5345 114.728 88.7474 114.728C93.2199 114.728 97.3214 114.165 100.519 113.228C102.614 112.614 102.502 109.612 100.365 109.165Z" fill="#FF7849"/>
<path opacity="0.26" d="M93.1172 110.576L99.7404 109.131C99.7404 109.131 101.476 109.317 101.796 110.236C102.346 111.813 101.22 112.772 101.22 112.772C101.22 112.772 100.78 109.131 93.1172 110.576Z" fill="#FF7849"/>
<path d="M100.365 109.165C99.961 109.08 99.5424 109.119 99.1582 109.271C96.7308 110.229 92.4811 110.864 87.6435 110.864C80.0982 110.864 73.9815 109.319 73.9815 107.414C73.9815 105.728 78.7697 104.325 85.0986 104.024L85.5339 101.717C76.853 102.256 70.2554 104.941 70.2554 108.173C70.2554 111.793 78.5345 114.728 88.7474 114.728C93.2199 114.728 97.3214 114.165 100.519 113.228C102.614 112.614 102.502 109.612 100.365 109.165Z" stroke="#C03000" stroke-width="1.61719" stroke-miterlimit="10" stroke-linecap="round" stroke-linejoin="round"/>
<path d="M99.0736 60.7021C96.8606 59.9957 94.4244 59.6042 91.8657 59.6042C89.3273 59.6042 86.9093 59.9891 84.7103 60.685C83.3784 57.5473 81.5552 54.9977 79.6261 53.4091C79.323 53.1596 78.8683 53.25 78.6783 53.5933C74.8537 60.5024 73.1398 68.4093 73.8673 77.0354C74.5332 86.6635 78.2421 97.2587 81.7622 108.192H102.026C105.558 97.2569 109.228 86.7877 109.915 77.2817C110.669 68.6008 108.937 60.6647 105 53.6819C104.807 53.339 104.35 53.2526 104.049 53.5067C102.159 55.104 100.379 57.6197 99.0736 60.7021Z" fill="#FF7849"/>
<path opacity="0.26" d="M93.5733 73.6835C93.5733 74.1964 92.8086 74.6121 91.8655 74.6121C90.9223 74.6121 90.1577 74.1963 90.1577 73.6835L91.8889 73.2954L93.5733 73.6835ZM98.938 107.998C98.938 107.998 98.9394 106.913 99.145 105.997C100.962 97.9011 99.7691 95.4056 99.7691 95.4056L95.9281 108.029L98.938 107.998ZM84.5168 107.998C84.5168 107.998 84.5154 106.913 84.3098 105.997C82.4927 97.9011 83.6857 95.4056 83.6857 95.4056L87.5267 108.029L84.5168 107.998Z" fill="#FF7849"/>
<path d="M99.0736 60.7021C96.8606 59.9957 94.4244 59.6042 91.8657 59.6042C89.3273 59.6042 86.9093 59.9891 84.7103 60.685C83.3784 57.5473 81.5552 54.9977 79.6261 53.4091C79.323 53.1596 78.8683 53.25 78.6783 53.5933C74.8537 60.5024 73.1398 68.4093 73.8673 77.0354C74.5332 86.6635 78.2421 97.2587 81.7622 108.192H102.026C105.558 97.2569 109.228 86.7877 109.915 77.2817C110.669 68.6008 108.937 60.6647 105 53.6819C104.807 53.339 104.35 53.2526 104.049 53.5067C102.159 55.104 100.379 57.6197 99.0736 60.7021Z" stroke="#C03000" stroke-width="1.61719" stroke-miterlimit="10" stroke-linecap="round" stroke-linejoin="round"/>
<path d="M86.1431 67.3184C86.7528 67.3184 87.2471 66.8241 87.2471 66.2144C87.2471 65.6046 86.7528 65.1104 86.1431 65.1104C85.5333 65.1104 85.0391 65.6046 85.0391 66.2144C85.0391 66.8241 85.5333 67.3184 86.1431 67.3184Z" fill="#C03000"/>
<path d="M97.5972 67.3184C98.2069 67.3184 98.7012 66.8241 98.7012 66.2144C98.7012 65.6046 98.2069 65.1104 97.5972 65.1104C96.9874 65.1104 96.4932 65.6046 96.4932 66.2144C96.4932 66.8241 96.9874 67.3184 97.5972 67.3184Z" fill="#C03000"/>
<path d="M92.7903 69.9283C92.1829 69.8683 91.5712 69.8683 90.9638 69.9283C90.6801 69.9565 90.5751 70.2471 90.7982 70.393C90.9885 70.5173 91.1797 70.6477 91.3711 70.7839C91.649 70.9818 92.1049 70.9818 92.383 70.7839C92.5714 70.6498 92.7623 70.5195 92.9559 70.393C93.179 70.2471 93.074 69.9563 92.7903 69.9283Z" fill="#C03000"/>
<path d="M99.7407 95.8027C99.5064 99.8766 97.6198 104.149 96.3137 108.223H91.8657L91.8965 96.7567" fill="#FF7849"/>
<path d="M83.9907 95.8027C84.225 99.8766 86.5256 104.149 87.8317 108.223H91.8657L91.8349 96.7567" fill="#FF7849"/>
<path d="M94.407 73.5538C94.1423 73.6962 93.8461 73.7702 93.5455 73.769C92.6243 73.769 91.8776 73.0977 91.8776 72.2695M89.3359 73.5538C89.5874 73.6904 89.8823 73.769 90.1975 73.769C91.1186 73.769 91.8653 73.0977 91.8653 72.2695M99.7404 95.8025C99.5061 99.8764 97.2055 104.149 95.8995 108.223H91.8655L91.8963 96.7565" stroke="#C03000" stroke-width="1.61719" stroke-miterlimit="10" stroke-linecap="round" stroke-linejoin="round"/>
<path d="M83.9907 95.8027C84.225 99.8766 86.1116 104.149 87.4177 108.223H91.8657L91.8349 96.7567" stroke="#C03000" stroke-width="1.61719" stroke-miterlimit="10" stroke-linecap="round" stroke-linejoin="round"/>
<path opacity="0.26" d="M101.112 62.2915C102.137 59.1592 103.618 58.3618 103.618 58.3618C103.618 58.3618 104.7 58.7605 104.7 63.0319M82.6197 62.2915C81.5945 59.1592 80.1138 58.3618 80.1138 58.3618C80.1138 58.3618 79.0317 58.7605 79.0317 63.0319" fill="#FF7849"/>
<path d="M89.4087 106.57L89.7537 108.123M94.3223 106.57L93.9773 108.123" stroke="#C03000" stroke-width="1.61719" stroke-miterlimit="10" stroke-linecap="round" stroke-linejoin="round"/>
<g opacity="0.24">
<path d="M98.0613 72.9534C99.729 73.3908 101.45 73.4828 103.118 73.2294M97.5925 74.0029C99.1126 74.9742 100.681 75.6306 102.201 75.9723M98.0613 71.4643C99.4268 71.3729 100.836 70.9987 102.201 70.3418M85.6697 72.9534C84.002 73.3908 82.281 73.4828 80.6133 73.2294M86.1385 74.0029C84.6185 74.9742 83.0498 75.6306 81.5297 75.9723M85.6697 71.4643C84.3042 71.3729 82.8952 70.9987 81.5297 70.3418" stroke="#C03000" stroke-width="0.539062" stroke-miterlimit="10" stroke-linecap="round" stroke-linejoin="round"/>
</g>
</svg>
