<svg width="24" height="24" viewBox="0 0 24 24" fill="none" xmlns="http://www.w3.org/2000/svg">
<path d="M3.5999 11.9999C3.5999 10.8968 3.81718 9.8045 4.23931 8.78536C4.66145 7.76623 5.28019 6.84022 6.06021 6.06021C6.84022 5.28019 7.76623 4.66145 8.78536 4.23931C9.8045 3.81717 10.8968 3.5999 11.9999 3.5999C13.103 3.5999 14.1953 3.81717 15.2144 4.23931C16.2336 4.66145 17.1596 5.28019 17.9396 6.06021C18.7196 6.84022 19.3384 7.76623 19.7605 8.78536C20.1826 9.8045 20.3999 10.8968 20.3999 11.9999C20.3999 14.2277 19.5149 16.3643 17.9396 17.9396C16.3643 19.5149 14.2277 20.3999 11.9999 20.3999C9.77208 20.3999 7.63551 19.5149 6.06021 17.9396C4.4849 16.3643 3.5999 14.2277 3.5999 11.9999ZM11.9999 2.3999C9.45382 2.3999 7.01203 3.41133 5.21168 5.21168C3.41133 7.01203 2.3999 9.45382 2.3999 11.9999C2.3999 14.546 3.41133 16.9878 5.21168 18.7881C7.01203 20.5885 9.45382 21.5999 11.9999 21.5999C14.546 21.5999 16.9878 20.5885 18.7881 18.7881C20.5885 16.9878 21.5999 14.546 21.5999 11.9999C21.5999 9.45382 20.5885 7.01203 18.7881 5.21168C16.9878 3.41133 14.546 2.3999 11.9999 2.3999ZM11.2355 7.3739C11.1205 7.26254 10.9666 7.20027 10.8065 7.20027C10.6464 7.20027 10.4925 7.26254 10.3775 7.3739C10.3214 7.42838 10.2767 7.49357 10.2463 7.56561C10.2158 7.63765 10.2001 7.71508 10.2001 7.7933C10.2001 7.87153 10.2158 7.94895 10.2463 8.021C10.2767 8.09304 10.3214 8.15823 10.3775 8.2127C10.8853 8.70463 11.289 9.29358 11.5647 9.94457C11.8404 10.5956 11.9825 11.2953 11.9825 12.0023C11.9825 12.7093 11.8404 13.409 11.5647 14.06C11.289 14.711 10.8853 15.3 10.3775 15.7919C10.3214 15.8464 10.2767 15.9116 10.2463 15.9836C10.2158 16.0557 10.2001 16.1331 10.2001 16.2113C10.2001 16.2895 10.2158 16.367 10.2463 16.439C10.2767 16.511 10.3214 16.5762 10.3775 16.6307C10.4925 16.7421 10.6464 16.8043 10.8065 16.8043C10.9666 16.8043 11.1205 16.7421 11.2355 16.6307C11.8557 16.0299 12.3488 15.3106 12.6856 14.5155C13.0223 13.7204 13.1959 12.8658 13.1959 12.0023C13.1959 11.1388 13.0223 10.2842 12.6856 9.48908C12.3488 8.69399 11.8557 7.97469 11.2355 7.3739ZM7.3739 8.5775C7.42827 8.5214 7.49336 8.47679 7.5653 8.44633C7.63725 8.41587 7.71458 8.40017 7.7927 8.40017C7.87083 8.40017 7.94816 8.41587 8.0201 8.44633C8.09204 8.47679 8.15713 8.5214 8.2115 8.5775C10.0571 10.4675 10.0571 13.5311 8.2115 15.4199C8.15713 15.476 8.09204 15.5206 8.0201 15.5511C7.94816 15.5815 7.87083 15.5972 7.7927 15.5972C7.71458 15.5972 7.63725 15.5815 7.5653 15.5511C7.49336 15.5206 7.42827 15.476 7.3739 15.4199C7.26282 15.3047 7.20074 15.1509 7.20074 14.9909C7.20074 14.8309 7.26282 14.6771 7.3739 14.5619C8.03923 13.8748 8.41122 12.9558 8.41122 11.9993C8.41122 11.0428 8.03923 10.1239 7.3739 9.4367C7.26246 9.32146 7.20016 9.16742 7.20016 9.0071C7.20016 8.84679 7.26246 8.69275 7.3739 8.5775ZM14.2499 6.1715C14.1316 6.06177 13.9762 6.0008 13.8149 6.0008C13.6536 6.0008 13.4982 6.06177 13.3799 6.1715C13.3232 6.22428 13.278 6.28817 13.2471 6.3592C13.2162 6.43022 13.2002 6.50684 13.2002 6.5843C13.2002 6.66176 13.2162 6.73839 13.2471 6.80941C13.278 6.88043 13.3232 6.94432 13.3799 6.9971C16.2923 9.7595 16.2923 14.2391 13.3799 17.0015C13.1399 17.2295 13.1399 17.5991 13.3799 17.8283C13.6199 18.0575 14.0099 18.0563 14.2511 17.8283C17.6435 14.6087 17.6435 9.3899 14.2511 6.1715" fill="#FF7849"/>
</svg>
