<svg width="17" height="20" viewBox="0 0 17 20" fill="none" xmlns="http://www.w3.org/2000/svg">
<path d="M13.5 0C14.2956 0 15.0587 0.316071 15.6213 0.87868C16.1839 1.44129 16.5 2.20435 16.5 3V19C16.5 19.181 16.4509 19.3587 16.3579 19.514C16.2648 19.6693 16.1314 19.7965 15.9718 19.8819C15.8121 19.9673 15.6323 20.0078 15.4515 19.999C15.2707 19.9902 15.0956 19.9325 14.945 19.832L12.627 18.287L11.207 19.707C11.0348 19.8792 10.8057 19.9826 10.5627 19.9979C10.3197 20.0132 10.0794 19.9393 9.887 19.79L9.793 19.707L8.5 18.415L7.207 19.707C7.03481 19.8792 6.80571 19.9826 6.56268 19.9979C6.31965 20.0132 6.0794 19.9393 5.887 19.79L5.793 19.707L4.372 18.287L2.055 19.832L2.036 19.844L1.982 19.874L1.954 19.891L1.9 19.914L1.85 19.937L1.801 19.952L1.741 19.971L1.689 19.98L1.632 19.991L1.548 19.997L1.522 20H1.5L1.451 19.997H1.412L1.399 19.994H1.383L1.342 19.986L1.304 19.981L1.289 19.976L1.271 19.974L1.237 19.963L1.197 19.953L1.178 19.946L1.163 19.942L1.134 19.929L1.094 19.914L1.073 19.903L1.06 19.898L1.032 19.882L0.996 19.864L0.982 19.854L0.964 19.844L0.926 19.817L0.904 19.803L0.894 19.794L0.874 19.78L0.829 19.739L0.817 19.731L0.793 19.707L0.758 19.668L0.738 19.648L0.731 19.637L0.72 19.625L0.688 19.58L0.668 19.555L0.656 19.536L0.626 19.482L0.609 19.454L0.586 19.4L0.563 19.35C0.549636 19.3147 0.538284 19.2786 0.529 19.242L0.519 19.185L0.509 19.132L0.5 19V3C0.5 2.20435 0.816071 1.44129 1.37868 0.87868C1.94129 0.316071 2.70435 0 3.5 0H13.5ZM11.5 12H9.5C9.23478 12 8.98043 12.1054 8.79289 12.2929C8.60536 12.4804 8.5 12.7348 8.5 13C8.5 13.2652 8.60536 13.5196 8.79289 13.7071C8.98043 13.8946 9.23478 14 9.5 14H11.5C11.7652 14 12.0196 13.8946 12.2071 13.7071C12.3946 13.5196 12.5 13.2652 12.5 13C12.5 12.7348 12.3946 12.4804 12.2071 12.2929C12.0196 12.1054 11.7652 12 11.5 12ZM11.5 8H5.5C5.23478 8 4.98043 8.10536 4.79289 8.29289C4.60536 8.48043 4.5 8.73478 4.5 9C4.5 9.26522 4.60536 9.51957 4.79289 9.70711C4.98043 9.89464 5.23478 10 5.5 10H11.5C11.7652 10 12.0196 9.89464 12.2071 9.70711C12.3946 9.51957 12.5 9.26522 12.5 9C12.5 8.73478 12.3946 8.48043 12.2071 8.29289C12.0196 8.10536 11.7652 8 11.5 8ZM11.5 4H5.5C5.23478 4 4.98043 4.10536 4.79289 4.29289C4.60536 4.48043 4.5 4.73478 4.5 5C4.5 5.26522 4.60536 5.51957 4.79289 5.70711C4.98043 5.89464 5.23478 6 5.5 6H11.5C11.7652 6 12.0196 5.89464 12.2071 5.70711C12.3946 5.51957 12.5 5.26522 12.5 5C12.5 4.73478 12.3946 4.48043 12.2071 4.29289C12.0196 4.10536 11.7652 4 11.5 4Z" fill="#FF7849"/>
</svg>
