<svg width="24" height="24" viewBox="0 0 24 24" fill="none" xmlns="http://www.w3.org/2000/svg">
<path d="M16.821 5H7.17998C6.63798 5 6.19998 5 5.84698 5.029C5.48198 5.059 5.16198 5.122 4.86598 5.272C4.39533 5.51173 4.0127 5.89435 3.77298 6.365C3.70398 6.501 3.67298 6.681 3.65298 6.815C3.62898 6.973 3.60998 7.165 3.59398 7.376C3.56298 7.8 3.54198 8.329 3.52798 8.874C3.50098 9.964 3.50098 11.139 3.50098 11.699C3.50098 11.8316 3.55366 11.9598 3.64742 12.0536C3.74119 12.1473 3.86837 12.2 4.00098 12.2C4.13358 12.2 4.26076 12.1473 4.35453 12.0536C4.4483 11.9598 4.50098 11.8326 4.50098 11.7C4.50098 11.33 4.50098 10.697 4.50898 10H19.5V15.3C19.5 15.868 19.5 16.265 19.474 16.573C19.45 16.875 19.404 17.049 19.337 17.181C19.1931 17.4635 18.9635 17.6931 18.681 17.837C18.549 17.904 18.375 17.95 18.073 17.974C17.765 18 17.368 18 16.8 18H12C11.8674 18 11.7402 18.0527 11.6464 18.1464C11.5527 18.2402 11.5 18.3674 11.5 18.5C11.5 18.6326 11.5527 18.7598 11.6464 18.8536C11.7402 18.9473 11.8674 19 12 19H16.821C17.363 19 17.801 19 18.154 18.971C18.519 18.941 18.839 18.878 19.135 18.727C19.6051 18.4874 19.9873 18.1051 20.227 17.635C20.378 17.339 20.441 17.019 20.471 16.655C20.5 16.3 20.5 15.863 20.5 15.321V8.68C20.5 8.138 20.5 7.7 20.471 7.347C20.441 6.982 20.378 6.662 20.227 6.366C19.9875 5.89551 19.6053 5.51289 19.135 5.273C18.839 5.123 18.519 5.06 18.155 5.03C17.8 5 17.363 5 16.821 5ZM19.496 8H4.55798C4.56731 7.8 4.57831 7.61667 4.59098 7.45C4.60498 7.24867 4.62164 7.086 4.64098 6.962C4.65298 6.881 4.66298 6.837 4.66698 6.819L4.66898 6.809C4.81295 6.53113 5.04023 6.30526 5.31898 6.163C5.45098 6.096 5.62498 6.05 5.92698 6.026C6.23598 6 6.63198 6 7.19998 6H16.8C17.368 6 17.765 6 18.073 6.026C18.375 6.05 18.549 6.096 18.681 6.163C18.9635 6.30685 19.1931 6.53651 19.337 6.819C19.404 6.951 19.45 7.125 19.474 7.427C19.488 7.59 19.493 7.777 19.496 8Z" fill="#FF7849"/>
<path d="M9.31423 15.8771L8.59423 16.5771C9.04623 17.4301 8.90423 18.5021 8.16523 19.2181L7.01723 20.3321C6.56882 20.7606 5.97246 20.9997 5.35223 20.9997C4.732 20.9997 4.13565 20.7606 3.68723 20.3321C3.47033 20.1248 3.29769 19.8757 3.17974 19.5999C3.06179 19.324 3.00098 19.0271 3.00098 18.7271C3.00098 18.4271 3.06179 18.1302 3.17974 17.8543C3.29769 17.5785 3.47033 17.3294 3.68723 17.1221L4.40723 16.4241C4.18145 15.9971 4.10108 15.5082 4.17832 15.0314C4.25556 14.5546 4.48619 14.116 4.83523 13.7821L5.98323 12.6681C6.43164 12.2396 7.028 12.0005 7.64823 12.0005C8.26846 12.0005 8.86482 12.2396 9.31323 12.6681C9.53013 12.8754 9.70278 13.1245 9.82072 13.4003C9.93867 13.6762 9.99949 13.9731 9.99949 14.2731C9.99949 14.5731 9.93867 14.87 9.82072 15.1459C9.70278 15.4217 9.53013 15.6708 9.31323 15.8781M8.66223 15.2681C8.79629 15.1396 8.90297 14.9853 8.97585 14.8145C9.04872 14.6436 9.08629 14.4598 9.08629 14.2741C9.08629 14.0884 9.04872 13.9046 8.97585 13.7338C8.90297 13.563 8.79629 13.4086 8.66223 13.2801C8.38941 13.0182 8.0259 12.872 7.64773 12.872C7.26957 12.872 6.90605 13.0182 6.63323 13.2801L5.48423 14.3941C5.3025 14.5689 5.17211 14.7901 5.10724 15.0337C5.04236 15.2774 5.04547 15.5341 5.11623 15.7761C5.54739 15.4763 6.06436 15.325 6.58912 15.3448C7.11388 15.3646 7.61794 15.5546 8.02523 15.8861L8.66223 15.2681ZM7.37423 16.5001C7.12123 16.313 6.81488 16.2121 6.50023 16.2121C6.18558 16.2121 5.87923 16.313 5.62623 16.5001C5.87923 16.6872 6.18558 16.7882 6.50023 16.7882C6.81488 16.7882 7.12123 16.6872 7.37423 16.5001ZM4.33723 17.7331C4.20317 17.8616 4.09649 18.016 4.02361 18.1868C3.95074 18.3576 3.91317 18.5414 3.91317 18.7271C3.91317 18.9128 3.95074 19.0966 4.02361 19.2674C4.09649 19.4383 4.20317 19.5926 4.33723 19.7211C4.61005 19.983 4.97357 20.1292 5.35173 20.1292C5.7299 20.1292 6.09341 19.983 6.36623 19.7211L7.51523 18.6071C7.90023 18.2341 8.02323 17.7011 7.88323 17.2251C7.45207 17.5249 6.9351 17.6763 6.41034 17.6564C5.88559 17.6366 5.38152 17.4466 4.97423 17.1151L4.33723 17.7331ZM14.0002 14.0001C13.735 14.0001 13.4807 14.1055 13.2931 14.293C13.1056 14.4805 13.0002 14.7349 13.0002 15.0001C13.0002 15.2653 13.1056 15.5197 13.2931 15.7072C13.4807 15.8948 13.735 16.0001 14.0002 16.0001H17.0002C17.2654 16.0001 17.5198 15.8948 17.7073 15.7072C17.8949 15.5197 18.0002 15.2653 18.0002 15.0001C18.0002 14.7349 17.8949 14.4805 17.7073 14.293C17.5198 14.1055 17.2654 14.0001 17.0002 14.0001H14.0002Z" fill="#FF7849"/>
</svg>
