<svg width="22" height="16" viewBox="0 0 22 16" fill="none" xmlns="http://www.w3.org/2000/svg">
<path d="M3.93206 0.285645C3.07958 0.285645 2.26201 0.624292 1.65922 1.22709C1.05642 1.82988 0.717773 2.64745 0.717773 3.49993V4.14279H21.2858V3.49993C21.2858 2.64745 20.9471 1.82988 20.3443 1.22709C19.7415 0.624292 18.924 0.285645 18.0715 0.285645H3.93206ZM0.717773 12.4999V5.4285H21.2858V12.4999C21.2858 13.3524 20.9471 14.17 20.3443 14.7728C19.7415 15.3756 18.924 15.7142 18.0715 15.7142H3.93292C3.08043 15.7142 2.26287 15.3756 1.66007 14.7728C1.05728 14.17 0.718631 13.3524 0.718631 12.4999M14.6429 10.1428C14.4724 10.1428 14.3089 10.2105 14.1883 10.3311C14.0678 10.4516 14.0001 10.6151 14.0001 10.7856C14.0001 10.9561 14.0678 11.1197 14.1883 11.2402C14.3089 11.3608 14.4724 11.4285 14.6429 11.4285H17.6429C17.8134 11.4285 17.9769 11.3608 18.0975 11.2402C18.218 11.1197 18.2858 10.9561 18.2858 10.7856C18.2858 10.6151 18.218 10.4516 18.0975 10.3311C17.9769 10.2105 17.8134 10.1428 17.6429 10.1428H14.6429Z" fill="#FF7849"/>
</svg>
