<svg width="22" height="16" viewBox="0 0 22 16" fill="none" xmlns="http://www.w3.org/2000/svg">
<path d="M14.6429 10.1428C14.4724 10.1428 14.3089 10.2105 14.1883 10.3311C14.0678 10.4516 14.0001 10.6151 14.0001 10.7856C14.0001 10.9561 14.0678 11.1197 14.1883 11.2402C14.3089 11.3608 14.4724 11.4285 14.6429 11.4285H17.6429C17.8134 11.4285 17.9769 11.3608 18.0975 11.2402C18.218 11.1197 18.2858 10.9561 18.2858 10.7856C18.2858 10.6151 18.218 10.4516 18.0975 10.3311C17.9769 10.2105 17.8134 10.1428 17.6429 10.1428H14.6429ZM0.717773 3.49993C0.717773 2.64745 1.05642 1.82988 1.65922 1.22709C2.26201 0.624292 3.07958 0.285645 3.93206 0.285645H18.0715C18.924 0.285645 19.7415 0.624292 20.3443 1.22709C20.9471 1.82988 21.2858 2.64745 21.2858 3.49993V12.4999C21.2858 13.3524 20.9471 14.17 20.3443 14.7728C19.7415 15.3756 18.924 15.7142 18.0715 15.7142H3.93292C3.08043 15.7142 2.26287 15.3756 1.66007 14.7728C1.05728 14.17 0.718631 13.3524 0.718631 12.4999L0.717773 3.49993ZM3.93206 1.57136C3.42057 1.57136 2.93003 1.77455 2.56835 2.13622C2.20668 2.4979 2.00349 2.98844 2.00349 3.49993V4.14279H20.0001V3.49993C20.0001 2.98844 19.7969 2.4979 19.4352 2.13622C19.0735 1.77455 18.583 1.57136 18.0715 1.57136H3.93206ZM2.00349 12.4999C2.00349 13.0114 2.20668 13.502 2.56835 13.8636C2.93003 14.2253 3.42057 14.4285 3.93206 14.4285H18.0715C18.583 14.4285 19.0735 14.2253 19.4352 13.8636C19.7969 13.502 20.0001 13.0114 20.0001 12.4999V5.4285H2.00435L2.00349 12.4999Z" fill="#8C8C8C"/>
</svg>
